<svg xmlns="http://www.w3.org/2000/svg" preserveAspectRatio="none" viewBox="0 0 1101.101 285.205"><defs><style>.cls-1{fill:#fff;}</style></defs><g id="Layer_2" data-name="Layer 2"><g id="Layer_1-2" data-name="Layer 1"><path class="cls-1" d="M10.127,2.188C27.005,2.371,43.884.912,60.762.729c7.764,0,15.528.183,23.292.365C98.569,1.641,111.4.912,126.249,0c12.277.271,136.6,4.724,150.486,4.76,13.872-4.845,379.49.213,393.357.228,42.813.048,73.6-1.985,109.982-2,82.3-.03,101.882,2,114.935,2,15.866,0,74.453-2.591,89.981-4.6,5.06-.545,8.037.059,13.171-.16,7.761,1.486,22.794.113,30.22.66,15.191,1.277,24.46.959,39.988.959,9.451,0,21.733-1.8,30.856-.794-1.687,6.383.537,15.018.537,21.4,0,10.942-1.35,118.354.337,129.3,1.688,12.4-.048,120.294,1,132.514-20.254,1.276-43.535.793-64.126.064-15.191-.548-30.044-1.824-44.9-.73a321.224,321.224,0,0,1-37.47.73c-5.562-.259-64.626-.447-146.793-.583-12.88,1.457-327.962-5.292-337.87-.3-27.743-.012-229.581-.059-237.026-.059-24.642,0-48.992-.125-73.1,1.526-26.422-1.321-70.363-.249-105.807-.249-12.153,0-25.318-.73-37.47.365a111.761,111.761,0,0,1-15.809-.285C2.183,272.385.338,163.762.338,150.814c0-8.206.675-112.679-.338-120.7.626-6.6,0-17.528,0-26.464Z"/></g></g></svg>
