<svg xmlns="http://www.w3.org/2000/svg" preserveAspectRatio="none" viewBox="0 0 285.214 437.473"><defs><style>.cls-1{fill:#fff;}</style></defs><g id="Layer_2" data-name="Layer 2"><g id="Layer_1-2" data-name="Layer 1"><path class="cls-1" d="M2.188,427.346C2.371,410.468.912,393.59.729,376.711c0-7.764.183-15.528.365-23.292C1.641,338.9.912,326.077,0,311.224,1.047,263.783.729,214.343.729,165.4c0-15.865,1.824-33.756-.182-49.284-.545-5.06.059-8.038-.16-13.171,1.486-7.762.113-22.794.66-30.22,1.277-15.191.959-24.46.959-39.988,0-9.451-1.8-21.733-.794-30.856,6.383,1.687,15.018-.537,21.4-.537,10.942,0,118.354,1.35,129.3-.338,12.4-1.688,120.293.049,132.513-1,1.276,20.254.793,43.534.064,64.126-.548,15.19-1.824,30.043-.73,44.9a321.224,321.224,0,0,1,.73,37.47c-.912,19.578-1.095,38.482-1.095,58.061,0,24.642-.125,48.992,1.526,73.1-1.321,26.422-.249,70.363-.249,105.808,0,12.152-.73,25.317.365,37.47a111.6,111.6,0,0,1-.285,15.808c-12.363-1.45-120.986.4-133.934.4-8.206,0-112.679-.675-120.7.337-6.6-.626-17.528,0-26.464,0Z"/></g></g></svg>
