<svg xmlns="http://www.w3.org/2000/svg" preserveAspectRatio="none" viewBox="0 0 285.205 1101.101"><defs><style>.cls-1{fill:#fff;}</style></defs><g id="Layer_2" data-name="Layer 2"><g id="Layer_1-2" data-name="Layer 1"><path class="cls-1" d="M2.188,1090.974c.183-16.878-1.276-33.756-1.459-50.635,0-7.764.183-15.528.365-23.292.547-14.515-.182-27.342-1.094-42.2.271-12.277,4.724-136.6,4.76-150.486-4.845-13.872.213-379.491.228-393.358C5.036,388.2,3,357.414,2.99,321.027c-.03-82.295,2-101.882,2-114.936,0-15.865-2.591-74.452-4.6-89.98-.545-5.06.059-8.038-.16-13.171,1.486-7.762.113-22.794.66-30.22,1.277-15.191.959-24.46.959-39.988C1.85,23.281.053,11,1.056,1.876c6.383,1.687,15.018-.537,21.4-.537,10.942,0,118.354,1.35,129.3-.338,12.4-1.688,120.293.049,132.513-1,1.276,20.254.794,43.534.064,64.126-.548,15.19-1.824,30.043-.73,44.9a321.224,321.224,0,0,1,.73,37.47c-.259,5.562-.446,64.625-.582,146.793,1.457,12.88-5.293,327.962-.3,337.87-.011,27.743-.059,229.581-.059,237.026,0,24.642-.125,48.992,1.526,73.1-1.321,26.422-.249,70.363-.249,105.807,0,12.153-.73,25.318.365,37.47a111.612,111.612,0,0,1-.285,15.809c-12.363-1.45-120.986.395-133.934.395-8.206,0-112.679-.676-120.7.337-6.6-.626-17.528,0-26.464,0Z"/></g></g></svg>
